<?xml version="1.0" encoding="UTF-8" standalone="no"?>
<!-- Created with Inkscape (http://www.inkscape.org/) -->

<svg
   xmlns:dc="http://purl.org/dc/elements/1.1/"
   xmlns:cc="http://creativecommons.org/ns#"
   xmlns:rdf="http://www.w3.org/1999/02/22-rdf-syntax-ns#"
   xmlns:svg="http://www.w3.org/2000/svg"
   xmlns="http://www.w3.org/2000/svg"
   xmlns:sodipodi="http://sodipodi.sourceforge.net/DTD/sodipodi-0.dtd"
   xmlns:inkscape="http://www.inkscape.org/namespaces/inkscape"
   width="40.029213mm"
   height="40.87595mm"
   viewBox="0 0 40.029212 40.87595"
   version="1.1"
   id="svg4093"
   inkscape:version="0.92.4 (5da689c313, 2019-01-14)"
   sodipodi:docname="club.svg">
  <defs
     id="defs4087" />
  <sodipodi:namedview
     id="base"
     pagecolor="#ffffff"
     bordercolor="#666666"
     borderopacity="1.0"
     inkscape:pageopacity="0.0"
     inkscape:pageshadow="2"
     inkscape:zoom="2.8"
     inkscape:cx="84.282688"
     inkscape:cy="18.197084"
     inkscape:document-units="mm"
     inkscape:current-layer="layer3"
     showgrid="false"
     inkscape:window-width="1920"
     inkscape:window-height="1017"
     inkscape:window-x="1912"
     inkscape:window-y="-8"
     inkscape:window-maximized="1" />
  <metadata
     id="metadata4090">
    <rdf:RDF>
      <cc:Work
         rdf:about="">
        <dc:format>image/svg+xml</dc:format>
        <dc:type
           rdf:resource="http://purl.org/dc/dcmitype/StillImage" />
        <dc:title></dc:title>
      </cc:Work>
    </rdf:RDF>
  </metadata>
  <g
     inkscape:label="Layer 1"
     inkscape:groupmode="layer"
     id="layer1"
     transform="translate(-90.732421,-128.52347)">
    <g
       transform="matrix(0.07272372,0,0,0.07272372,84.358707,113.10262)"
       id="g3804">
      <g
         id="layer1-1"
         transform="matrix(28.969925,0,0,28.969925,-1031.5368,-187.37665)">
        <path
           style="fill-opacity:1"
           inkscape:connector-curvature="0"
           d="m 50.291466,22.698228 c 0,0 2.375,-1.9 2.375,-4.534 0,-1.542 -1.369,-4.102 -4.534,-4.102 -3.165,0 -4.534,2.561 -4.534,4.102 0,2.634 2.375,4.534 2.375,4.534 -2.638,-2.055 -7.341,-0.652 -7.341,3.455 0,2.056 1.68,4.318 4.318,4.318 3.165,0 4.534,-3.455 4.534,-3.455 0,0 0.402,3.938 -1.943,6.046 h 5.182 c -2.345,-2.107 -1.943,-6.046 -1.943,-6.046 0,0 1.369,3.455 4.534,3.455 2.639,0 4.318,-2.263 4.318,-4.318 0,-4.107 -4.703,-5.51 -7.341,-3.455 z"
           id="cl" />
      </g>
    </g>
  </g>
  <g
     inkscape:groupmode="layer"
     id="layer2"
     inkscape:label="Layer 2"
     transform="translate(3.1804425,-0.2834794)"
     style="display:none">
    <g
       transform="matrix(2.1287944,0,0,1.9463812,16.651738,20.720482)"
       id="layer1-7">
      <path
         id="sl"
         d="M 7.989,3.103 C 7.747,-0.954 0.242,-8.59 0,-10.5 c -0.242,1.909 -7.747,9.545 -7.989,13.603 -0.169,2.868 1.695,4.057 3.39,4.057 1.8351685,-0.021581 3.3508701,-2.8006944 3.873,-3.341 0.242,0.716 -1.603,6.682 -2.179,6.682 H 2.906 C 2.33,10.501 0.485,4.535 0.727,3.819 1.1841472,4.3152961 2.5241276,7.0768295 4.601,7.16 6.295,7.159 8.158,5.971 7.989,3.103 Z"
         inkscape:connector-curvature="0"
         style="fill:#000000"
         sodipodi:nodetypes="cccccccccc" />
    </g>
  </g>
  <g
     inkscape:groupmode="layer"
     id="layer3"
     inkscape:label="Layer 3"
     transform="translate(3.1804425,-0.2834794)"
     style="display:none">
    <g
       transform="matrix(0.06945129,0,0,0.06945129,-8.4360728,-16.340863)"
       id="g3036">
      <g
         style="stroke:none"
         id="layer1-9"
         transform="matrix(34.670635,0,0,32.448413,363.65075,535.3979)">
        <path
           sodipodi:nodetypes="scsscss"
           d="M 3.676,-9 C 0.433,-9 0,-5.523 0,-5.523 0,-5.523 -0.433,-9 -3.676,-9 -5.946,-9 -8,-7.441 -8,-4.5 -8,-0.614 -1.4208493,3.2938141 0,9 1.35201,3.2985969 8,-0.614 8,-4.5 8,-7.441 5.946,-9 3.676,-9 Z"
           id="hl"
           inkscape:connector-curvature="0"
           style="fill:#df0000;fill-opacity:1;stroke:none" />
      </g>
    </g>
  </g>
  <g
     inkscape:groupmode="layer"
     id="layer4"
     inkscape:label="Layer 4"
     transform="translate(3.1804425,-0.2834794)"
     style="display:none">
    <g
       transform="matrix(0.0555425,0,0,0.0555425,-3.8042377,-7.7422946)"
       id="g3011">
      <g
         id="layer1-2"
         transform="matrix(35.005102,0,0,35.005102,369.18369,512.27289)">
        <path
           sodipodi:nodetypes="ccccccccc"
           d="M 3.2433274,-4.7253274 C 1.1263274,-7.5893274 0,-10.5 0,-10.5 c 0,0 -1.1263274,2.9106726 -3.2433274,5.7746726 C -5.3613274,-1.8623274 -8,0 -8,0 -8,0 -5.3613274,1.8613274 -3.2433274,4.7263274 -1.1263274,7.5893274 0,10.5 0,10.5 0,10.5 1.1263274,7.5893274 3.2433274,4.7263274 5.3613274,1.8613274 8,0 8,0 8,0 5.3613274,-1.8623274 3.2433274,-4.7253274 Z"
           id="dl"
           inkscape:connector-curvature="0"
           style="fill:#df0000;fill-opacity:1" />
      </g>
    </g>
  </g>
</svg>
